<svg xmlns="http://www.w3.org/2000/svg" xmlns:xlink="http://www.w3.org/1999/xlink" preserveAspectRatio="xMidYMid" width="583" height="506" viewBox="0 0 583 506">
  <defs>
    <style>
      .cls-1 {
        fill: #301ee4;
        filter: url(#drop-shadow-1);
        fill-rule: evenodd;
      }
    </style>

    <filter id="drop-shadow-1" filterUnits="userSpaceOnUse">
      <feOffset in="SourceAlpha"/>
      <feGaussianBlur stdDeviation="5.916" result="dropBlur"/>
      <feFlood flood-opacity="0.03"/>
      <feComposite operator="in" in2="dropBlur" result="dropShadowComp"/>
      <feComposite in="SourceGraphic" result="shadowed"/>
    </filter>
  </defs>
  <path d="M104.725,399.753 C124.969,419.637 148.404,435.760 173.342,447.967 C185.284,453.813 198.244,458.607 211.913,462.278 C263.036,476.002 324.096,474.017 379.092,452.673 C399.569,444.726 419.202,434.097 437.170,420.595 C447.512,412.824 457.301,404.103 466.380,394.394 C469.239,391.338 472.028,388.182 474.742,384.926 C487.740,369.340 500.499,352.799 511.636,334.451 C532.093,300.738 547.069,260.915 547.977,209.651 C548.235,195.073 547.120,180.166 541.323,166.615 C534.466,150.590 522.799,140.864 508.446,135.177 C495.873,130.195 481.241,128.315 465.973,128.021 C451.714,127.744 436.904,128.852 422.706,130.110 C410.545,131.187 398.967,131.399 387.857,130.615 C346.335,127.682 311.360,110.810 277.062,72.991 C255.689,49.424 232.964,39.065 211.010,36.008 C188.308,32.845 166.431,37.490 147.721,43.413 C128.611,49.464 105.889,61.755 85.864,83.030 C74.599,94.998 64.187,109.806 55.752,127.948 C49.723,140.911 44.705,155.576 41.107,172.120 C38.111,185.895 36.096,200.973 35.306,217.456 C33.359,258.026 40.343,294.131 53.760,325.549 C66.016,354.253 83.640,379.044 104.725,399.753 Z" class="cls-1"/>
</svg>
